<svg width="20" height="20" viewBox="0 0 20 20" fill="none" xmlns="http://www.w3.org/2000/svg">
<g clip-path="url(#clip0_68_49585)">
<path d="M17.339 7.69217L5.52645 0.410714C4.67184 -0.115419 3.6386 -0.137294 2.76246 0.352199C1.88633 0.841614 1.36328 1.73306 1.36328 2.73662V17.2332C1.36328 18.7506 2.58594 19.9918 4.08868 20C4.09278 20 4.09688 20 4.1009 20C4.57051 20 5.05989 19.8528 5.51696 19.5739C5.88466 19.3495 6.00087 18.8696 5.77653 18.502C5.5522 18.1342 5.07219 18.0181 4.70462 18.2424C4.49083 18.3728 4.28204 18.4402 4.09708 18.4402C3.53008 18.4371 2.92301 17.9514 2.92301 17.2332V2.73666C2.92301 2.30615 3.14739 1.92384 3.52317 1.71388C3.89899 1.50392 4.34215 1.51329 4.70829 1.73872L16.5208 9.02018C16.8759 9.23878 17.0791 9.60327 17.0782 10.0202C17.0773 10.4371 16.8727 10.8008 16.5157 11.0187L7.97517 16.2479C7.60782 16.4728 7.49236 16.9529 7.71728 17.3202C7.94216 17.6876 8.42228 17.8031 8.78962 17.5781L17.3291 12.3495C18.1468 11.8507 18.636 10.9812 18.638 10.0233C18.64 9.06561 18.1542 8.19405 17.339 7.69217Z" fill="white"/>
</g>
<defs>
<clipPath id="clip0_68_49585">
<rect width="20" height="20" fill="white"/>
</clipPath>
</defs>
</svg>
