<svg width="39" height="40" viewBox="0 0 39 40" fill="none" xmlns="http://www.w3.org/2000/svg">
<path d="M19.5 0.625C30.2031 0.625 38.875 9.29688 38.875 20C38.875 30.7031 30.2031 39.375 19.5 39.375C8.79688 39.375 0.125 30.7031 0.125 20C0.125 9.29688 8.79688 0.625 19.5 0.625ZM28.9531 13.9062C29.2656 12.6562 28.4844 12.1094 27.625 12.4219L8.95312 19.6094C7.70312 20.0781 7.70312 20.8594 8.71875 21.1719L13.4844 22.6562L24.5781 15.625C25.125 15.3125 25.5938 15.5469 25.2031 15.8594L16.2188 23.9844L15.9062 28.9062C16.375 28.9062 16.6094 28.6719 16.8438 28.4375L19.1875 26.1719L24.0312 29.7656C24.9688 30.2344 25.5938 30 25.8281 28.9062L28.9531 13.9062Z" fill="white"/>
</svg>
