<svg width="35" height="36" viewBox="0 0 35 36" fill="none" xmlns="http://www.w3.org/2000/svg">
<path d="M29.6875 5.65625C32.9688 8.9375 35 13.2344 35 17.9219C35 27.4531 27.0312 35.2656 17.4219 35.2656C14.5312 35.2656 11.7188 34.4844 9.14062 33.1562L0 35.5L2.42188 26.5156C0.9375 23.9375 0.078125 20.9688 0.078125 17.8438C0.078125 8.3125 7.89062 0.5 17.4219 0.5C22.1094 0.5 26.4844 2.375 29.6875 5.65625ZM17.4219 32.2969C25.3906 32.2969 32.0312 25.8125 32.0312 17.9219C32.0312 14.0156 30.3906 10.4219 27.6562 7.6875C24.9219 4.95312 21.3281 3.46875 17.5 3.46875C9.53125 3.46875 3.04688 9.95312 3.04688 17.8438C3.04688 20.5781 3.82812 23.2344 5.23438 25.5781L5.625 26.125L4.14062 31.4375L9.60938 29.9531L10.0781 30.2656C12.3438 31.5938 14.8438 32.2969 17.4219 32.2969ZM25.3906 21.5156C25.7812 21.75 26.0938 21.8281 26.1719 22.0625C26.3281 22.2188 26.3281 23.0781 25.9375 24.0938C25.5469 25.1094 23.8281 26.0469 23.0469 26.125C21.6406 26.3594 20.5469 26.2812 17.8125 25.0312C13.4375 23.1562 10.625 18.7812 10.3906 18.5469C10.1562 18.2344 8.67188 16.2031 8.67188 14.0156C8.67188 11.9062 9.76562 10.8906 10.1562 10.4219C10.5469 9.95312 11.0156 9.875 11.3281 9.875C11.5625 9.875 11.875 9.875 12.1094 9.875C12.4219 9.875 12.7344 9.79688 13.125 10.6562C13.4375 11.5156 14.375 13.625 14.4531 13.8594C14.5312 14.0938 14.6094 14.3281 14.4531 14.6406C13.6719 16.2812 12.7344 16.2031 13.2031 16.9844C14.9219 19.875 16.5625 20.8906 19.1406 22.1406C19.5312 22.375 19.7656 22.2969 20.0781 22.0625C20.3125 21.75 21.1719 20.7344 21.4062 20.3438C21.7188 19.875 22.0312 19.9531 22.4219 20.1094C22.8125 20.2656 24.9219 21.2812 25.3906 21.5156Z" fill="white"/>
</svg>
