<svg width="22" height="30" viewBox="0 0 22 30" fill="none" xmlns="http://www.w3.org/2000/svg">
<g clip-path="url(#clip0_30_66159)">
<path d="M0.917969 3.75C0.917969 1.68164 2.56224 0 4.58464 0H17.418C19.4404 0 21.0846 1.68164 21.0846 3.75V26.25C21.0846 28.3184 19.4404 30 17.418 30H4.58464C2.56224 30 0.917969 28.3184 0.917969 26.25V3.75ZM8.2513 26.25C8.2513 26.7656 8.6638 27.1875 9.16797 27.1875H12.8346C13.3388 27.1875 13.7513 26.7656 13.7513 26.25C13.7513 25.7344 13.3388 25.3125 12.8346 25.3125H9.16797C8.6638 25.3125 8.2513 25.7344 8.2513 26.25ZM17.418 3.75H4.58464V22.5H17.418V3.75Z" fill="white"/>
</g>
<defs>
<clipPath id="clip0_30_66159">
<rect width="22" height="30" fill="white"/>
</clipPath>
</defs>
</svg>
