<svg width="30" height="30" viewBox="0 0 30 30" fill="none" xmlns="http://www.w3.org/2000/svg">
<path d="M15 4.6875C8.7832 4.6875 3.65625 9.33984 2.90625 15.3516C3.45703 15.1289 4.05469 15 4.6875 15C6.24023 15 7.5 16.2598 7.5 17.8125V25.3125C7.5 26.8652 6.24023 28.125 4.6875 28.125C2.09766 28.125 0 26.0273 0 23.4375V22.5V19.6875V16.875C0 8.58984 6.71484 1.875 15 1.875C23.2852 1.875 30 8.58984 30 16.875V19.6875V22.5V23.4375C30 26.0273 27.9023 28.125 25.3125 28.125C23.7598 28.125 22.5 26.8652 22.5 25.3125V17.8125C22.5 16.2598 23.7598 15 25.3125 15C25.9453 15 26.543 15.123 27.0938 15.3516C26.3438 9.33984 21.2168 4.6875 15 4.6875Z" fill="white"/>
</svg>
