<svg width="30" height="30" viewBox="0 0 30 30" fill="none" xmlns="http://www.w3.org/2000/svg">
<g clip-path="url(#clip0_30_66151)">
<path d="M0 15C0 11.0218 1.58035 7.20644 4.3934 4.3934C7.20644 1.58035 11.0218 0 15 0C18.9782 0 22.7936 1.58035 25.6066 4.3934C28.4196 7.20644 30 11.0218 30 15C30 18.9782 28.4196 22.7936 25.6066 25.6066C22.7936 28.4196 18.9782 30 15 30C11.0218 30 7.20644 28.4196 4.3934 25.6066C1.58035 22.7936 0 18.9782 0 15ZM18.75 20.625C18.75 19.0488 17.7832 17.7012 16.4062 17.1504V5.15625C16.4062 4.37695 15.7793 3.75 15 3.75C14.2207 3.75 13.5938 4.37695 13.5938 5.15625V17.1504C12.2168 17.707 11.25 19.0547 11.25 20.625C11.25 22.6934 12.9316 24.375 15 24.375C17.0684 24.375 18.75 22.6934 18.75 20.625ZM8.4375 10.3125C8.93478 10.3125 9.41169 10.115 9.76332 9.76332C10.115 9.41169 10.3125 8.93478 10.3125 8.4375C10.3125 7.94022 10.115 7.46331 9.76332 7.11167C9.41169 6.76004 8.93478 6.5625 8.4375 6.5625C7.94022 6.5625 7.46331 6.76004 7.11167 7.11167C6.76004 7.46331 6.5625 7.94022 6.5625 8.4375C6.5625 8.93478 6.76004 9.41169 7.11167 9.76332C7.46331 10.115 7.94022 10.3125 8.4375 10.3125ZM7.5 15C7.5 14.5027 7.30246 14.0258 6.95083 13.6742C6.59919 13.3225 6.12228 13.125 5.625 13.125C5.12772 13.125 4.65081 13.3225 4.29917 13.6742C3.94754 14.0258 3.75 14.5027 3.75 15C3.75 15.4973 3.94754 15.9742 4.29917 16.3258C4.65081 16.6775 5.12772 16.875 5.625 16.875C6.12228 16.875 6.59919 16.6775 6.95083 16.3258C7.30246 15.9742 7.5 15.4973 7.5 15ZM24.375 16.875C24.8723 16.875 25.3492 16.6775 25.7008 16.3258C26.0525 15.9742 26.25 15.4973 26.25 15C26.25 14.5027 26.0525 14.0258 25.7008 13.6742C25.3492 13.3225 24.8723 13.125 24.375 13.125C23.8777 13.125 23.4008 13.3225 23.0492 13.6742C22.6975 14.0258 22.5 14.5027 22.5 15C22.5 15.4973 22.6975 15.9742 23.0492 16.3258C23.4008 16.6775 23.8777 16.875 24.375 16.875ZM23.4375 8.4375C23.4375 7.94022 23.24 7.46331 22.8883 7.11167C22.5367 6.76004 22.0598 6.5625 21.5625 6.5625C21.0652 6.5625 20.5883 6.76004 20.2367 7.11167C19.885 7.46331 19.6875 7.94022 19.6875 8.4375C19.6875 8.93478 19.885 9.41169 20.2367 9.76332C20.5883 10.115 21.0652 10.3125 21.5625 10.3125C22.0598 10.3125 22.5367 10.115 22.8883 9.76332C23.24 9.41169 23.4375 8.93478 23.4375 8.4375Z" fill="white"/>
</g>
<defs>
<clipPath id="clip0_30_66151">
<rect width="30" height="30" fill="white"/>
</clipPath>
</defs>
</svg>
