<svg width="30" height="35" viewBox="0 0 30 35" fill="none" xmlns="http://www.w3.org/2000/svg">
<g clip-path="url(#clip0_30_66149)">
<path d="M30 5.46875V8.75C30 11.7715 23.2835 14.2188 15 14.2188C6.71652 14.2188 0 11.7715 0 8.75V5.46875C0 2.44727 6.71652 0 15 0C23.2835 0 30 2.44727 30 5.46875ZM26.3304 14.6768C27.7232 14.1709 29.0022 13.5215 30 12.7217V19.6875C30 22.709 23.2835 25.1562 15 25.1562C6.71652 25.1562 0 22.709 0 19.6875V12.7217C0.997768 13.5283 2.27679 14.1709 3.66964 14.6768C6.67634 15.7705 10.6808 16.4062 15 16.4062C19.3192 16.4062 23.3237 15.7705 26.3304 14.6768ZM0 23.6592C0.997768 24.4658 2.27679 25.1084 3.66964 25.6143C6.67634 26.708 10.6808 27.3438 15 27.3438C19.3192 27.3438 23.3237 26.708 26.3304 25.6143C27.7232 25.1084 29.0022 24.459 30 23.6592V29.5312C30 32.5527 23.2835 35 15 35C6.71652 35 0 32.5527 0 29.5312V23.6592Z" fill="white"/>
</g>
<defs>
<clipPath id="clip0_30_66149">
<rect width="30" height="35" fill="white"/>
</clipPath>
</defs>
</svg>
