<svg width="27" height="42" viewBox="0 0 27 42" fill="none" xmlns="http://www.w3.org/2000/svg">
<path d="M22.4844 26.0938C20.2969 27.5 17.4062 28.0469 15.4531 28.2031L17.0938 29.8438L23.0312 35.7812C25.2188 38.0469 21.625 41.5625 19.4375 39.375C17.9531 37.8906 15.7656 35.7031 13.5 33.3594L7.5625 39.375C5.29688 41.4844 1.78125 37.9688 3.96875 35.7812C5.53125 34.2969 7.64062 32.1094 9.90625 29.8438L11.5469 28.2031C9.59375 28.0469 6.625 27.5 4.4375 26.0938C1.9375 24.4531 0.84375 23.5156 1.78125 21.4844C2.40625 20.3906 3.96875 19.375 6.07812 21.0938C6.07812 21.0938 8.89062 23.3594 13.5 23.3594C18.0312 23.3594 20.9219 21.0938 20.9219 21.0938C22.9531 19.4531 24.5938 20.3906 25.1406 21.4844C26.1562 23.5156 24.9844 24.4531 22.4844 26.0938ZM3.34375 10.1562C3.34375 4.53125 7.875 0 13.5 0C19.0469 0 23.5781 4.53125 23.5781 10.1562C23.5781 15.7812 19.0469 20.3125 13.5 20.3125C7.875 20.3125 3.34375 15.7812 3.34375 10.1562ZM8.5 10.1562C8.5 12.8906 10.6875 15.1562 13.5 15.1562C16.2344 15.1562 18.4219 12.8906 18.4219 10.1562C18.4219 7.42188 16.2344 5.15625 13.5 5.15625C10.6875 5.15625 8.5 7.42188 8.5 10.1562Z" fill="white"/>
</svg>
