<svg width="14" height="22" viewBox="0 0 14 22" fill="none" xmlns="http://www.w3.org/2000/svg">
<path d="M11.7422 13.5469C10.6484 14.25 9.20312 14.5234 8.22656 14.6016L9.04688 15.4219L12.0156 18.3906C13.1094 19.5234 11.3125 21.2812 10.2188 20.1875C9.47656 19.4453 8.38281 18.3516 7.25 17.1797L4.28125 20.1875C3.14844 21.2422 1.39062 19.4844 2.48438 18.3906C3.26562 17.6484 4.32031 16.5547 5.45312 15.4219L6.27344 14.6016C5.29688 14.5234 3.8125 14.25 2.71875 13.5469C1.46875 12.7266 0.921875 12.2578 1.39062 11.2422C1.70312 10.6953 2.48438 10.1875 3.53906 11.0469C3.53906 11.0469 4.94531 12.1797 7.25 12.1797C9.51562 12.1797 10.9609 11.0469 10.9609 11.0469C11.9766 10.2266 12.7969 10.6953 13.0703 11.2422C13.5781 12.2578 12.9922 12.7266 11.7422 13.5469ZM2.17188 5.57812C2.17188 2.76562 4.4375 0.5 7.25 0.5C10.0234 0.5 12.2891 2.76562 12.2891 5.57812C12.2891 8.39062 10.0234 10.6562 7.25 10.6562C4.4375 10.6562 2.17188 8.39062 2.17188 5.57812ZM4.75 5.57812C4.75 6.94531 5.84375 8.07812 7.25 8.07812C8.61719 8.07812 9.71094 6.94531 9.71094 5.57812C9.71094 4.21094 8.61719 3.07812 7.25 3.07812C5.84375 3.07812 4.75 4.21094 4.75 5.57812Z" fill="#3C4767"/>
</svg>
