<svg width="22" height="13" viewBox="0 0 22 13" fill="none" xmlns="http://www.w3.org/2000/svg">
<path d="M21.2891 1.10938C20.9766 2.4375 18.1641 6.42188 18.1641 6.42188C17.9297 6.8125 17.8125 7.00781 18.1641 7.4375C18.3203 7.63281 21.25 10.4453 21.6797 11.7734C21.875 12.4375 21.5625 12.75 20.8984 12.75H18.5938C17.7344 12.75 17.4609 12.0859 15.8984 10.5234C14.5312 9.19531 13.9453 9 13.5938 9C12.8906 9 13.0078 9.27344 13.0078 11.8906C13.0078 12.4375 12.8125 12.75 11.3672 12.75C8.94531 12.75 6.25 11.3047 4.33594 8.57031C1.48438 4.54688 0.703125 1.53906 0.703125 0.914062C0.703125 0.5625 0.859375 0.25 1.48438 0.25H3.78906C4.375 0.25 4.60938 0.523438 4.84375 1.14844C5.97656 4.42969 7.85156 7.32031 8.63281 7.32031C8.94531 7.32031 9.0625 7.16406 9.0625 6.42188V3.02344C8.98438 1.46094 8.16406 1.34375 8.16406 0.796875C8.16406 0.523438 8.35938 0.25 8.75 0.25H12.3438C12.8516 0.25 13.0078 0.523438 13.0078 1.10938V5.67969C13.0078 6.14844 13.2422 6.34375 13.3594 6.34375C13.6719 6.34375 13.9062 6.14844 14.4531 5.64062C16.0938 3.76562 17.2656 0.914062 17.2656 0.914062C17.4219 0.5625 17.6953 0.25 18.2812 0.25H20.5859C21.2891 0.25 21.4062 0.640625 21.2891 1.10938Z" fill="#3C4767"/>
</svg>
