<svg width="64" height="64" viewBox="0 0 64 64" fill="none" xmlns="http://www.w3.org/2000/svg">
<path d="M40.2916 57.1934L10.8841 57.1943C9.64461 57.1953 8.31255 57.2899 7.08731 57.1168C4.43689 56.742 2.28605 54.4477 2.09839 51.7753C2.03386 50.8562 2.07586 49.911 2.07679 48.9891L2.07572 14.455C2.07682 10.2251 3.61705 7.07865 8.25614 6.77719L37.6261 6.77714C38.8605 6.77681 40.2171 6.66968 41.4341 6.88339C44.211 7.37105 46.189 9.9733 46.2685 12.7253C46.2976 13.7306 46.2752 14.7427 46.2752 15.7485L46.2756 50.224C46.2755 50.8907 46.2971 51.5722 46.2061 52.2344C45.7967 55.2075 43.2067 57.1174 40.2916 57.1934ZM33.7143 16.4043C32.5207 17.0941 30.6613 18.6313 29.4903 19.4944L19.292 26.914C18.7562 27.2967 18.2259 27.7063 17.6727 28.0626V16.653H12.3983V47.497H17.6727V36.1707L19.0534 37.1572C21.2715 38.8671 23.5813 40.4538 25.8373 42.1127L31.8347 46.5254C32.4633 46.9832 33.0777 47.4664 33.7143 47.9122C34.594 46.6366 35.8903 44.5025 36.942 43.4221C35.7821 42.7957 34.7294 41.9217 33.6686 41.1411L23.9174 34.0184C23.0757 33.3927 22.1683 32.7897 21.3814 32.0966C23.3128 30.7464 25.1945 29.3061 27.0826 27.8967L33.0457 23.4997C34.3391 22.5452 35.6114 21.5475 36.942 20.6457C35.8145 19.2946 34.7043 17.8589 33.7143 16.4043Z" fill="white"/>
<path d="M51.6602 50.7011V13.4023C52.1551 13.6973 52.6281 14.0787 53.0848 14.4294C63.0855 22.1088 64.7499 35.9939 57.0647 45.9204C55.6055 47.8017 53.725 49.5046 51.6602 50.7011Z" fill="white"/>
</svg>
