<svg width="197" height="32" viewBox="0 0 197 32" fill="none" xmlns="http://www.w3.org/2000/svg">
<path d="M75.7561 31.2259H68.0753L58.6219 17.5309V31.2259H51.8695V1.6379H58.6219V14.4875L67.6533 1.6379H75.3341L65.3743 16.0515L75.7561 31.2259Z" fill="#3657CB"/>
<path d="M95.1683 10.0916V31.2259H88.8379V16.1783H85.5461V22.4763C85.5461 25.6605 84.7584 28.0275 83.1828 29.5774C81.6072 31.099 79.272 31.7613 76.1772 31.564V25.6464C78.2029 25.9 79.2158 24.7024 79.2158 22.0536V10.0916H95.1683Z" fill="#3657CB"/>
<path d="M113.723 10.0916H118.365V31.2259H112.203V20.236L104.438 31.2259H99.7958V10.0916H105.957V21.0814L113.723 10.0916Z" fill="#3657CB"/>
<path d="M142.834 31.2259H135.66L129.329 21.9691V31.2259H122.999V10.0916H129.329V19.2639L135.238 10.0916H142.412L135.364 20.6587L142.834 31.2259Z" fill="#3657CB"/>
<path d="M170.367 27.3794C167.384 30.3382 163.755 31.8176 159.478 31.8176C155.202 31.8176 151.572 30.3382 148.59 27.3794C145.608 24.4206 144.117 20.7714 144.117 16.4319C144.117 12.0923 145.608 8.44313 148.59 5.48434C151.572 2.52554 155.202 1.04614 159.478 1.04614C163.755 1.04614 167.384 2.52554 170.367 5.48434C173.349 8.44313 174.84 12.0923 174.84 16.4319C174.84 20.7714 173.349 24.4206 170.367 27.3794ZM153.317 22.7722C154.977 24.4065 157.031 25.2237 159.478 25.2237C161.926 25.2237 163.966 24.4065 165.598 22.7722C167.258 21.1378 168.088 19.0243 168.088 16.4319C168.088 13.8394 167.258 11.726 165.598 10.0916C163.966 8.45722 161.926 7.64003 159.478 7.64003C157.031 7.64003 154.977 8.45722 153.317 10.0916C151.685 11.726 150.869 13.8394 150.869 16.4319C150.869 19.0243 151.685 21.1378 153.317 22.7722Z" fill="white"/>
<path d="M190.67 10.0916H197V31.2259H190.67V23.6175H184.761V31.2259H178.431V10.0916H184.761V17.6999H190.67V10.0916Z" fill="white"/>
<path d="M24.2005 31.9825L5.58439 31.9831C4.79976 31.9837 3.95652 32.0437 3.18089 31.9339C1.50308 31.6963 0.141514 30.2416 0.0227194 28.5473C-0.0181325 27.9646 0.00845564 27.3652 0.00904581 26.7807L0.00836584 4.88519C0.00906604 2.20333 0.984088 0.208375 3.92081 0.01724L22.5131 0.0172095C23.2945 0.0169991 24.1533 -0.0509264 24.9237 0.0845742C26.6816 0.39376 27.9338 2.04366 27.9841 3.78853C28.0025 4.42591 27.9883 5.0676 27.9883 5.70529L27.9886 27.5637C27.9885 27.9864 28.0022 28.4185 27.9446 28.8383C27.6854 30.7234 26.0458 31.9343 24.2005 31.9825ZM20.0368 6.1211C19.2812 6.55844 18.1041 7.5331 17.3628 8.08033L10.9069 12.7845C10.5677 13.0271 10.232 13.2869 9.88184 13.5128V6.27876H6.54297V25.8347H9.88184V18.6535L10.7559 19.279C12.16 20.3631 13.6222 21.3691 15.0503 22.4209L18.8469 25.2187C19.2448 25.509 19.6338 25.8153 20.0368 26.098C20.5936 25.2892 21.4143 23.9361 22.0801 23.2511C21.3458 22.854 20.6794 22.2998 20.0079 21.8049L13.835 17.2889C13.3021 16.8922 12.7278 16.5099 12.2296 16.0704C13.4523 15.2144 14.6434 14.3012 15.8387 13.4076L19.6136 10.6198C20.4323 10.0146 21.2377 9.38204 22.0801 8.81027C21.3663 7.95361 20.6635 7.04336 20.0368 6.1211Z" fill="white"/>
<path d="M31.3947 27.8671V4.21859C31.708 4.4056 32.0075 4.64744 32.2965 4.86976C38.6274 9.73874 39.681 18.5423 34.816 24.8359C33.8922 26.0287 32.7019 27.1084 31.3947 27.8671Z" fill="white"/>
</svg>
