<svg width="20" height="20" viewBox="0 0 20 20" fill="none" xmlns="http://www.w3.org/2000/svg">
  <path d="M19.7558 18.5602L14.7548 13.5592C16.0346 12.0442 16.6689 10.0933 16.5412 8.11409C16.4136 6.13485 15.5332 4.28521 14.0754 2.96015C12.6176 1.6351 10.6913 0.940996 8.70755 1.00889C6.72383 1.07678 4.85358 1.89929 3.49821 3.32487C2.1428 4.75043 1.41123 6.65825 1.4389 8.64289C1.46658 10.6275 2.23978 12.5112 3.63397 13.8982C5.02816 15.2852 6.91793 16.025 8.90138 15.9963C10.8848 15.9676 12.7483 15.1724 14.1934 13.8015L19.1944 18.8025C19.2866 18.8946 19.409 18.9458 19.5362 18.9458C19.6634 18.9458 19.7858 18.8946 19.8779 18.8025C19.97 18.7104 20.0212 18.588 20.0212 18.4607C20.0212 18.3335 19.97 18.2111 19.8779 18.119L19.7558 18.5602ZM8.99961 15.0002C7.61854 15.0002 6.26877 14.5897 5.14428 13.8204C4.01979 13.0511 3.16868 11.9579 2.68588 10.6791C2.20308 9.40034 2.11209 8.00278 2.42632 6.65842C2.74055 5.31406 3.44435 4.08927 4.45015 3.13371C5.4559 2.17816 6.7169 1.51303 8.08852 1.2143C9.46013 0.915564 10.8849 1.01045 12.1894 1.50423C13.4938 1.998 14.6102 2.85656 15.3983 3.99481C16.1864 5.13305 16.6112 6.4997 16.6112 7.89857C16.6092 9.7902 15.8499 11.6037 14.4977 12.9559C13.1455 14.3081 11.3321 15.0675 9.44042 15.0694L8.99961 15.0002Z" fill="white"/>
</svg> 