<svg width="32" height="32" viewBox="0 0 32 32" fill="none" xmlns="http://www.w3.org/2000/svg">
<g clip-path="url(#clip0_68_51321)">
<path d="M30.9378 13.9423C30.9368 13.9416 30.9361 13.9406 30.9354 13.9399L18.1573 1.16222C17.6126 0.617317 16.8884 0.317383 16.1182 0.317383C15.3479 0.317383 14.6238 0.617317 14.0789 1.16222L1.3074 13.9334C1.30309 13.9377 1.29855 13.9423 1.29449 13.9466C0.176009 15.0715 0.177921 16.8967 1.29999 18.0188C1.81262 18.5316 2.48945 18.8285 3.21335 18.8598C3.24299 18.8626 3.27262 18.8641 3.3025 18.8641H3.81155V28.2674C3.81155 30.1285 5.3258 31.6425 7.18683 31.6425H12.186C12.693 31.6425 13.1038 31.2314 13.1038 30.7248V23.3523C13.1038 22.5032 13.7947 21.8125 14.6438 21.8125H17.5925C18.4417 21.8125 19.1323 22.5032 19.1323 23.3523V30.7248C19.1323 31.2314 19.5432 31.6425 20.0501 31.6425H25.0493C26.9106 31.6425 28.4246 30.1285 28.4246 28.2674V18.8641H28.8968C29.6668 18.8641 30.391 18.5641 30.9361 18.019C32.0594 16.8953 32.0599 15.0667 30.9378 13.9423ZM29.6382 16.7213C29.44 16.9194 29.1767 17.0286 28.8968 17.0286H27.5068C26.9999 17.0286 26.5891 17.4395 26.5891 17.9464V28.2674C26.5891 29.1163 25.8984 29.807 25.0493 29.807H20.9678V23.3523C20.9678 21.4913 19.4538 19.9771 17.5925 19.9771H14.6438C12.7826 19.9771 11.2683 21.4913 11.2683 23.3523V29.807H7.18683C6.33793 29.807 5.647 29.1163 5.647 28.2674V17.9464C5.647 17.4395 5.23618 17.0286 4.72928 17.0286H3.3632C3.34886 17.0277 3.33476 17.027 3.32018 17.0267C3.04678 17.0219 2.79034 16.9134 2.59819 16.721C2.18951 16.3124 2.18951 15.6473 2.59819 15.2383C2.59843 15.2383 2.59843 15.2381 2.59867 15.2379L2.59938 15.2371L15.3771 2.45994C15.5749 2.26182 15.8381 2.15284 16.1182 2.15284C16.398 2.15284 16.6612 2.26182 16.8593 2.45994L29.6341 15.2345C29.636 15.2364 29.6382 15.2383 29.6401 15.2403C30.0466 15.6496 30.0459 16.3133 29.6382 16.7213Z" fill="white"/>
</g>
<defs>
<clipPath id="clip0_68_51321">
<rect width="31.325" height="31.325" fill="white" transform="translate(0.398438 0.37793)"/>
</clipPath>
</defs>
</svg>
