<svg width="32" height="32" viewBox="0 0 32 32" fill="none" xmlns="http://www.w3.org/2000/svg">
<g clip-path="url(#clip0_126_104)">
<path d="M23.4634 4.9854H23.8917V5.41367C23.8917 5.75158 24.1656 6.02549 24.5035 6.02549C24.8413 6.02549 25.1153 5.75158 25.1153 5.41367V4.9854H25.5436C25.8814 4.9854 26.1554 4.71149 26.1554 4.37359C26.1554 4.03568 25.8814 3.76177 25.5436 3.76177H25.1153V3.3335C25.1153 2.99559 24.8413 2.72168 24.5035 2.72168C24.1656 2.72168 23.8917 2.99559 23.8917 3.3335V3.76177H23.4634C23.1255 3.76177 22.8516 4.03568 22.8516 4.37359C22.8516 4.71149 23.1255 4.9854 23.4634 4.9854Z" fill="white"/>
<path d="M4.71153 20.0958H4.28325V19.6675C4.28325 19.3296 4.00928 19.0557 3.67144 19.0557C3.33359 19.0557 3.05962 19.3296 3.05962 19.6675V20.0958H2.63135C2.2935 20.0958 2.01953 20.3697 2.01953 20.7076C2.01953 21.0455 2.2935 21.3194 2.63135 21.3194H3.05962V21.7477C3.05962 22.0856 3.33359 22.3595 3.67144 22.3595C4.00928 22.3595 4.28325 22.0856 4.28325 21.7477V21.3194H4.71153C5.04937 21.3194 5.32334 21.0455 5.32334 20.7076C5.32334 20.3697 5.04937 20.0958 4.71153 20.0958Z" fill="white"/>
<path d="M30.4889 21.1358H30.0606V20.7075C30.0606 20.3696 29.7866 20.0957 29.4488 20.0957C29.1109 20.0957 28.837 20.3696 28.837 20.7075V21.1358H28.4087C28.0708 21.1358 27.7969 21.4097 27.7969 21.7476C27.7969 22.0855 28.0708 22.3594 28.4087 22.3594H28.837V22.7877C28.837 23.1256 29.1109 23.3995 29.4488 23.3995C29.7866 23.3995 30.0606 23.1256 30.0606 22.7877V22.3594H30.4889C30.8267 22.3594 31.1007 22.0855 31.1007 21.7476C31.1007 21.4097 30.8268 21.1358 30.4889 21.1358Z" fill="white"/>
<path d="M23.8748 18.6641L30.0021 14.2328C30.9484 13.5483 31.3275 12.3881 30.9678 11.277C30.6081 10.1658 29.621 9.44786 28.4531 9.44786H20.8901L18.5757 2.2882C18.2163 1.1764 17.2291 0.458008 16.0607 0.458008C14.8922 0.458008 13.905 1.1764 13.5456 2.2882L11.2313 9.4478H3.66818C2.50029 9.4478 1.51318 10.1658 1.15349 11.2769C0.793745 12.3881 1.17283 13.5483 2.11919 14.2327L8.24647 18.664L5.90144 25.8283C5.46687 27.156 6.11215 28.3217 7.02321 28.8966V31.1712C7.02321 31.5091 7.29718 31.783 7.63502 31.783H13.3075C13.6453 31.783 13.9193 31.5091 13.9193 31.1712C13.9193 30.8333 13.6453 30.5594 13.3075 30.5594H8.24684V28.6526C8.24684 26.8054 9.74965 25.3027 11.5967 25.3027H13.9161L15.5038 28.7899C15.6032 29.0081 15.8209 29.1482 16.0607 29.1482C16.3004 29.1482 16.5181 29.0081 16.6175 28.7899L18.2053 25.3026H20.5247C22.3717 25.3026 23.8745 26.8054 23.8745 28.6525V30.5594H18.8138C18.476 30.5594 18.202 30.8333 18.202 31.1712C18.202 31.5091 18.476 31.783 18.8138 31.783H24.4864C24.8242 31.783 25.0982 31.5091 25.0982 31.1712V28.8966C26.0092 28.3217 26.6545 27.156 26.2199 25.8283L23.8748 18.6641ZM13.1707 18.4309H17.4088C17.9648 18.4309 18.489 18.2936 18.9506 18.0523V19.425C18.9506 21.2934 17.7353 22.6495 16.0607 22.6495C14.4672 22.6495 13.1708 21.353 13.1708 19.7595V18.4309H13.1707ZM19.526 15.09C19.526 16.2575 18.5762 17.2072 17.4088 17.2072H13.1707V16.2954C13.1707 15.1279 14.1205 14.1782 15.2879 14.1782H19.526V15.09ZM16.0607 27.0599L14.9216 24.5582V23.7115C15.2836 23.816 15.6655 23.8732 16.0607 23.8732C16.4591 23.8732 16.8404 23.8168 17.1997 23.7126V24.5582L16.0607 27.0599ZM24.9215 27.397C24.3743 25.4839 22.611 24.079 20.5247 24.079H18.4234V23.1111C19.4961 22.325 20.1742 20.9948 20.1742 19.425V16.9623C20.5372 16.4278 20.7496 15.7833 20.7496 15.09V13.5663C20.7496 13.2284 20.4756 12.9545 20.1378 12.9545H15.2878C13.4457 12.9545 11.947 14.4532 11.947 16.2953V19.7594C11.947 21.1488 12.6401 22.3786 13.6979 23.1237V24.0789H11.5967C9.51024 24.0789 7.74692 25.4838 7.19978 27.3969C6.99555 27.0756 6.91565 26.663 7.06432 26.2089L9.54836 18.6202C9.63114 18.3674 9.54102 18.09 9.32541 17.9341L2.83636 13.2413C2.21946 12.7951 2.16397 12.1287 2.31766 11.6538C2.47135 11.1789 2.9069 10.6715 3.66818 10.6715H11.6765C11.9419 10.6715 12.177 10.5004 12.2587 10.2479L14.71 2.66465C14.9442 1.93989 15.5613 1.68164 16.0607 1.68164C16.56 1.68164 17.1771 1.93989 17.4114 2.66453L19.8626 10.2478C19.9443 10.5003 20.1794 10.6714 20.4448 10.6714H28.4531C29.2144 10.6714 29.65 11.1789 29.8037 11.6538C29.9574 12.1287 29.9019 12.7951 29.285 13.2412L22.7958 17.9342C22.5803 18.0901 22.4902 18.3675 22.5729 18.6203L25.0569 26.209C25.2056 26.663 25.1257 27.0757 24.9215 27.397Z" fill="white"/>
<path d="M16.061 30.5596C15.9001 30.5596 15.7423 30.625 15.6285 30.7388C15.5147 30.8526 15.4492 31.0105 15.4492 31.1714C15.4492 31.3323 15.5146 31.4901 15.6285 31.6039C15.7423 31.7177 15.9001 31.7832 16.061 31.7832C16.2219 31.7832 16.3798 31.7177 16.4935 31.6039C16.6073 31.4901 16.6729 31.3323 16.6729 31.1714C16.6729 31.0105 16.6074 30.8526 16.4935 30.7388C16.3798 30.625 16.2219 30.5596 16.061 30.5596Z" fill="white"/>
</g>
<defs>
<clipPath id="clip0_126_104">
<rect width="31.325" height="31.325" fill="white" transform="translate(0.398438 0.458008)"/>
</clipPath>
</defs>
</svg>
