<svg width="32" height="32" viewBox="0 0 32 32" fill="none" xmlns="http://www.w3.org/2000/svg">
<path d="M22.5915 22.5715C23.1354 22.5715 23.5978 22.3811 23.9785 22.0004C24.3593 21.6196 24.5496 21.1573 24.5496 20.6134C24.5496 20.0694 24.3593 19.6071 23.9785 19.2264C23.5978 18.8456 23.1354 18.6552 22.5915 18.6552C22.0476 18.6552 21.5853 18.8456 21.2045 19.2264C20.8238 19.6071 20.6334 20.0694 20.6334 20.6134C20.6334 21.1573 20.8238 21.6196 21.2045 22.0004C21.5853 22.3811 22.0476 22.5715 22.5915 22.5715ZM22.5915 26.4877C23.266 26.4877 23.886 26.33 24.4517 26.0145C25.0174 25.699 25.4743 25.2802 25.8224 24.7581C25.3438 24.4752 24.8325 24.2576 24.2886 24.1053C23.7446 23.9531 23.1789 23.8769 22.5915 23.8769C22.0041 23.8769 21.4384 23.9531 20.8945 24.1053C20.3505 24.2576 19.8393 24.4752 19.3606 24.7581C19.7087 25.2802 20.1656 25.699 20.7313 26.0145C21.297 26.33 21.917 26.4877 22.5915 26.4877ZM16.0644 29.0986C13.0402 28.3371 10.5436 26.602 8.5746 23.8932C6.6056 21.1845 5.62109 18.1766 5.62109 14.8695V6.90648L16.0644 2.99023L26.5078 6.90648V14.3147C26.0944 14.1407 25.6701 13.9829 25.235 13.8415C24.7998 13.7001 24.3538 13.5967 23.8969 13.5315V8.73407L16.0644 5.79688L8.23193 8.73407V14.8695C8.23193 15.8921 8.36791 16.9147 8.63987 17.9373C8.91183 18.9598 9.29258 19.9335 9.78211 20.8581C10.2716 21.7828 10.8645 22.6368 11.5607 23.42C12.257 24.2033 13.0293 24.856 13.8779 25.3781C14.1172 26.0744 14.4327 26.7379 14.8243 27.3689C15.2159 27.9998 15.6619 28.5655 16.1623 29.0659C16.1406 29.0659 16.1243 29.0714 16.1134 29.0823C16.1025 29.0931 16.0862 29.0986 16.0644 29.0986ZM22.5915 29.0986C20.7857 29.0986 19.2464 28.4622 17.9736 27.1894C16.7008 25.9166 16.0644 24.3773 16.0644 22.5715C16.0644 20.7657 16.7008 19.2264 17.9736 17.9536C19.2464 16.6808 20.7857 16.0444 22.5915 16.0444C24.3973 16.0444 25.9366 16.6808 27.2094 17.9536C28.4822 19.2264 29.1186 20.7657 29.1186 22.5715C29.1186 24.3773 28.4822 25.9166 27.2094 27.1894C25.9366 28.4622 24.3973 29.0986 22.5915 29.0986Z" fill="#E8EAED"/>
</svg>
